<svg xmlns="http://www.w3.org/2000/svg" viewBox="0 0 1200 330" width="1200" height="330" role="img" aria-label="What Manas is up to right now">
<title>What Manas is up to right now</title>
<defs><filter id="glow" x="-50%" y="-50%" width="200%" height="200%">
  <feGaussianBlur stdDeviation="4" result="b"/><feMerge><feMergeNode in="b"/><feMergeNode in="SourceGraphic"/></feMerge></filter>
<filter id="softglow" x="-20%" y="-50%" width="140%" height="200%">
  <feGaussianBlur stdDeviation="10" result="b"/><feMerge><feMergeNode in="b"/><feMergeNode in="SourceGraphic"/></feMerge></filter>
<radialGradient id="bgg" cx="50%" cy="40%" r="75%"><stop offset="0" stop-color="#0d1428"/><stop offset="1" stop-color="#070b16"/></radialGradient>
<linearGradient id="rail" x1="0" x2="1"><stop offset="0" stop-color="#22d3ee"/><stop offset="0.5" stop-color="#a78bfa"/><stop offset="1" stop-color="#f472b6"/></linearGradient>
</defs>
<rect width="1200" height="330" rx="18" fill="url(#bgg)"/>
<circle cx="701" cy="166" r="0.6" fill="#fff" opacity="0.26"><animate attributeName="opacity" values="0.26;0.05;0.26" dur="3.8s" repeatCount="indefinite"/></circle>
<circle cx="531" cy="61" r="0.6" fill="#fff" opacity="0.36"><animate attributeName="opacity" values="0.36;0.05;0.36" dur="3.0s" repeatCount="indefinite"/></circle>
<circle cx="39" cy="236" r="0.8" fill="#fff" opacity="0.36"><animate attributeName="opacity" values="0.36;0.05;0.36" dur="3.2s" repeatCount="indefinite"/></circle>
<circle cx="32" cy="319" r="0.8" fill="#fff" opacity="0.30"><animate attributeName="opacity" values="0.30;0.05;0.30" dur="3.2s" repeatCount="indefinite"/></circle>
<circle cx="229" cy="110" r="0.6" fill="#fff" opacity="0.34"><animate attributeName="opacity" values="0.34;0.05;0.34" dur="2.4s" repeatCount="indefinite"/></circle>
<circle cx="62" cy="240" r="1" fill="#fff" opacity="0.59"><animate attributeName="opacity" values="0.59;0.05;0.59" dur="4.8s" repeatCount="indefinite"/></circle>
<circle cx="947" cy="317" r="1.2" fill="#fff" opacity="0.30"><animate attributeName="opacity" values="0.30;0.05;0.30" dur="2.8s" repeatCount="indefinite"/></circle>
<circle cx="978" cy="208" r="1" fill="#fff" opacity="0.33"><animate attributeName="opacity" values="0.33;0.05;0.33" dur="2.2s" repeatCount="indefinite"/></circle>
<circle cx="522" cy="29" r="0.6" fill="#fff" opacity="0.24"/>
<circle cx="817" cy="6" r="0.6" fill="#fff" opacity="0.39"/>
<circle cx="227" cy="168" r="1" fill="#fff" opacity="0.28"/>
<circle cx="1169" cy="157" r="1.2" fill="#fff" opacity="0.57"/>
<circle cx="1128" cy="11" r="1" fill="#fff" opacity="0.50"/>
<circle cx="758" cy="130" r="1" fill="#fff" opacity="0.27"/>
<circle cx="496" cy="167" r="1" fill="#fff" opacity="0.41"/>
<circle cx="934" cy="133" r="1.2" fill="#fff" opacity="0.53"/>
<circle cx="664" cy="305" r="1" fill="#fff" opacity="0.52"/>
<circle cx="526" cy="147" r="1.2" fill="#fff" opacity="0.34"/>
<circle cx="985" cy="167" r="1.2" fill="#fff" opacity="0.58"/>
<circle cx="51" cy="57" r="0.6" fill="#fff" opacity="0.53"/>
<circle cx="110" cy="228" r="0.6" fill="#fff" opacity="0.33"/>
<circle cx="721" cy="264" r="0.6" fill="#fff" opacity="0.55"/>
<circle cx="1047" cy="148" r="1" fill="#fff" opacity="0.60"/>
<circle cx="2" cy="64" r="0.6" fill="#fff" opacity="0.34"/>
<circle cx="374" cy="149" r="0.8" fill="#fff" opacity="0.30"/>
<circle cx="59" cy="50" r="0.8" fill="#fff" opacity="0.43"/>
<circle cx="14" cy="76" r="0.8" fill="#fff" opacity="0.29"/>
<circle cx="675" cy="138" r="1" fill="#fff" opacity="0.52"/>
<circle cx="642" cy="62" r="0.8" fill="#fff" opacity="0.45"/>
<circle cx="50" cy="266" r="0.6" fill="#fff" opacity="0.54"/>
<circle cx="122" cy="311" r="1" fill="#fff" opacity="0.23"/>
<circle cx="558" cy="74" r="0.6" fill="#fff" opacity="0.46"/>
<circle cx="914" cy="288" r="1" fill="#fff" opacity="0.36"/>
<circle cx="793" cy="257" r="1" fill="#fff" opacity="0.53"/>
<circle cx="713" cy="269" r="0.8" fill="#fff" opacity="0.25"/>
<circle cx="9" cy="99" r="0.6" fill="#fff" opacity="0.34"/>
<circle cx="230" cy="249" r="1" fill="#fff" opacity="0.37"/>
<circle cx="778" cy="200" r="0.8" fill="#fff" opacity="0.30"/>
<circle cx="1006" cy="21" r="0.8" fill="#fff" opacity="0.37"/>
<circle cx="101" cy="72" r="0.8" fill="#fff" opacity="0.50"/>
<circle cx="248" cy="72" r="1.2" fill="#fff" opacity="0.57"/>
<circle cx="643" cy="138" r="0.8" fill="#fff" opacity="0.56"/>
<circle cx="1140" cy="160" r="1.2" fill="#fff" opacity="0.39"/>
<circle cx="705" cy="12" r="0.6" fill="#fff" opacity="0.27"/>
<circle cx="115" cy="238" r="1" fill="#fff" opacity="0.40"/>
<circle cx="74" cy="156" r="0.8" fill="#fff" opacity="0.50"/>
<circle cx="331" cy="143" r="1" fill="#fff" opacity="0.39"/>
<circle cx="236" cy="258" r="0.8" fill="#fff" opacity="0.24"/>
<circle cx="359" cy="136" r="0.6" fill="#fff" opacity="0.28"/>
<circle cx="585" cy="267" r="1" fill="#fff" opacity="0.59"/>
<style>.rise { animation: rise .9s ease-out both } @keyframes rise { from { opacity: 0; transform: translateY(10px) } to { opacity: 1; transform: none } }</style><rect x="20" y="20" width="1160" height="46" rx="12" fill="#fff" fill-opacity="0.03"/>
<circle cx="46" cy="43" r="6" fill="#f87171" opacity="0.85"/><circle cx="68" cy="43" r="6" fill="#fbbf24" opacity="0.85"/><circle cx="90" cy="43" r="6" fill="#34d399" opacity="0.85"/>
<text x="130" y="48" font-family="'SFMono-Regular', Consolas, 'Liberation Mono', Menlo, monospace" font-size="15" fill="#e2e8f0" opacity="0.8">manas@asu:~$ <tspan fill="#22d3ee">watch</tspan> status --live</text>
<circle cx="1062" cy="43" r="5" fill="#34d399"><animate attributeName="opacity" values="1;0.2;1" dur="1.4s" repeatCount="indefinite"/></circle>
<text x="1160" y="48" text-anchor="end" font-family="'SFMono-Regular', Consolas, 'Liberation Mono', Menlo, monospace" font-size="13" fill="#34d399">LIVE</text>
<g class="rise" style="animation-delay:0.00s"><rect x="30" y="86" width="267" height="168" rx="14" fill="#22d3ee" fill-opacity="0.05" stroke="#22d3ee" stroke-opacity="0.4"/><text x="50" y="116" font-family="'SFMono-Regular', Consolas, 'Liberation Mono', Menlo, monospace" font-size="12.5" fill="#22d3ee" letter-spacing="3">TRAINING</text><text x="277" y="120" text-anchor="end" font-size="24">🎓</text><text x="50" y="164" font-family="'Segoe UI', 'Helvetica Neue', Arial, sans-serif" font-size="22" font-weight="700" fill="#e2e8f0">M.S. CS @ ASU</text><text x="50" y="190" font-family="'Segoe UI', 'Helvetica Neue', Arial, sans-serif" font-size="14.5" fill="#e2e8f0" opacity="0.65">distributed systems + AI</text><rect x="50" y="218" width="227" height="6" rx="3" fill="#fff" fill-opacity="0.08"/><rect x="50" y="218" width="0" height="6" rx="3" fill="#22d3ee" filter="url(#glow)"><animate attributeName="width" values="0;227;227;0" keyTimes="0;0.6;0.9;1" dur="4.0s" repeatCount="indefinite"/></rect></g>
<g class="rise" style="animation-delay:0.25s"><rect x="310" y="86" width="267" height="168" rx="14" fill="#f472b6" fill-opacity="0.05" stroke="#f472b6" stroke-opacity="0.4"/><text x="330" y="116" font-family="'SFMono-Regular', Consolas, 'Liberation Mono', Menlo, monospace" font-size="12.5" fill="#f472b6" letter-spacing="3">EXPLORING</text><text x="557" y="120" text-anchor="end" font-size="24">🧠</text><text x="330" y="164" font-family="'Segoe UI', 'Helvetica Neue', Arial, sans-serif" font-size="22" font-weight="700" fill="#e2e8f0">Vision Transformers</text><text x="330" y="190" font-family="'Segoe UI', 'Helvetica Neue', Arial, sans-serif" font-size="14.5" fill="#e2e8f0" opacity="0.65">Whisper · RAG · LoRA</text><rect x="330" y="218" width="227" height="6" rx="3" fill="#fff" fill-opacity="0.08"/><rect x="330" y="218" width="0" height="6" rx="3" fill="#f472b6" filter="url(#glow)"><animate attributeName="width" values="0;227;227;0" keyTimes="0;0.6;0.9;1" dur="4.7s" repeatCount="indefinite"/></rect></g>
<g class="rise" style="animation-delay:0.50s"><rect x="590" y="86" width="267" height="168" rx="14" fill="#a78bfa" fill-opacity="0.05" stroke="#a78bfa" stroke-opacity="0.4"/><text x="610" y="116" font-family="'SFMono-Regular', Consolas, 'Liberation Mono', Menlo, monospace" font-size="12.5" fill="#a78bfa" letter-spacing="3">SHIPPING</text><text x="837" y="120" text-anchor="end" font-size="24">🚀</text><text x="610" y="164" font-family="'Segoe UI', 'Helvetica Neue', Arial, sans-serif" font-size="22" font-weight="700" fill="#e2e8f0">Nocturne</text><text x="610" y="190" font-family="'Segoe UI', 'Helvetica Neue', Arial, sans-serif" font-size="14.5" fill="#e2e8f0" opacity="0.65">portfolio under a real night sky</text><rect x="610" y="218" width="227" height="6" rx="3" fill="#fff" fill-opacity="0.08"/><rect x="610" y="218" width="0" height="6" rx="3" fill="#a78bfa" filter="url(#glow)"><animate attributeName="width" values="0;227;227;0" keyTimes="0;0.6;0.9;1" dur="5.4s" repeatCount="indefinite"/></rect></g>
<g class="rise" style="animation-delay:0.75s"><rect x="870" y="86" width="267" height="168" rx="14" fill="#fbbf24" fill-opacity="0.05" stroke="#fbbf24" stroke-opacity="0.4"/><text x="890" y="116" font-family="'SFMono-Regular', Consolas, 'Liberation Mono', Menlo, monospace" font-size="12.5" fill="#fbbf24" letter-spacing="3">OFF-DUTY</text><text x="1117" y="120" text-anchor="end" font-size="24">🔭</text><text x="890" y="164" font-family="'Segoe UI', 'Helvetica Neue', Arial, sans-serif" font-size="22" font-weight="700" fill="#e2e8f0">Stargazing</text><text x="890" y="190" font-family="'Segoe UI', 'Helvetica Neue', Arial, sans-serif" font-size="14.5" fill="#e2e8f0" opacity="0.65">soundtracks &amp; good stories</text><rect x="890" y="218" width="227" height="6" rx="3" fill="#fff" fill-opacity="0.08"/><rect x="890" y="218" width="0" height="6" rx="3" fill="#fbbf24" filter="url(#glow)"><animate attributeName="width" values="0;227;227;0" keyTimes="0;0.6;0.9;1" dur="6.1s" repeatCount="indefinite"/></rect></g>
<clipPath id="tk"><rect x="20" y="272" width="1160" height="40"/></clipPath><rect x="20" y="272" width="1160" height="40" rx="10" fill="#fff" fill-opacity="0.03"/><g clip-path="url(#tk)"><text y="298" font-family="'SFMono-Regular', Consolas, 'Liberation Mono', Menlo, monospace" font-size="14" fill="#64748b"><tspan x="40">loss ↓  curiosity ↑  ✦  shipping full-stack + ML  ✦  open to SWE roles  ✦  coffee: brewing ☕  ✦  last seen: under a dark sky  ✦  backprop through bugs  ✦  forward_pass(idea) → product  ✦  loss ↓  curiosity ↑  ✦  shipping full-stack + ML  ✦  open to SWE roles  ✦  coffee: brewing ☕  ✦  last seen: under a dark sky  ✦  backprop through bugs  ✦  forward_pass(idea) → product</tspan><animateTransform attributeName="transform" type="translate" from="0 0" to="-1580 0" dur="28s" repeatCount="indefinite"/></text></g>
</svg>