<svg xmlns="http://www.w3.org/2000/svg" viewBox="0 0 1200 262" width="1200" height="262" role="img" aria-label="Resumify: An AI resume optimizer that lifts ATS compatibility and recruiter appeal: good resumes, made great."><title>Resumify: An AI resume optimizer that lifts ATS compatibility and recruiter appeal: good resumes, made great.</title><defs><radialGradient id="skyg" cx="50%" cy="0%" r="110%"><stop offset="0" stop-color="#0e1330"/><stop offset="1" stop-color="#03040b"/></radialGradient><filter id="haze" x="-20%" y="-50%" width="140%" height="200%"><feGaussianBlur stdDeviation="30"/></filter><filter id="glow" x="-100%" y="-100%" width="300%" height="300%"><feGaussianBlur stdDeviation="3" result="b"/><feMerge><feMergeNode in="b"/><feMergeNode in="SourceGraphic"/></feMerge></filter><filter id="softglow" x="-100%" y="-100%" width="300%" height="300%"><feGaussianBlur stdDeviation="5" result="b"/><feMerge><feMergeNode in="b"/><feMergeNode in="SourceGraphic"/></feMerge></filter><style>.rise{animation:rise 1.1s ease-out both}@keyframes rise{from{opacity:0;transform:translateY(8px)}to{opacity:1;transform:none}}</style></defs><rect width="1200" height="262" rx="18" fill="url(#skyg)"/>
<path d="M1166.4,16.9 Q1166.4,21.4 1170.9,21.4 Q1166.4,21.4 1166.4,25.9 Q1166.4,21.4 1161.9,21.4 Q1166.4,21.4 1166.4,16.9 Z" fill="#e8e6ff" opacity="0.52"><animate attributeName="opacity" values="0.52;0.13;0.52" dur="3.9s" begin="3.7s" repeatCount="indefinite"/></path>
<path d="M196.4,249.2 Q196.4,252.7 200.0,252.7 Q196.4,252.7 196.4,256.2 Q196.4,252.7 192.9,252.7 Q196.4,252.7 196.4,249.2 Z" fill="#e8e6ff" opacity="0.71"><animate attributeName="opacity" values="0.71;0.18;0.71" dur="4.0s" begin="0.0s" repeatCount="indefinite"/></path>
<path d="M652.3,113.5 Q652.3,115.7 654.5,115.7 Q652.3,115.7 652.3,118.0 Q652.3,115.7 650.0,115.7 Q652.3,115.7 652.3,113.5 Z" fill="#e8e6ff" opacity="0.29"><animate attributeName="opacity" values="0.29;0.07;0.29" dur="3.3s" begin="1.1s" repeatCount="indefinite"/></path>
<path d="M929.3,108.7 Q929.3,110.3 930.9,110.3 Q929.3,110.3 929.3,111.9 Q929.3,110.3 927.7,110.3 Q929.3,110.3 929.3,108.7 Z" fill="#e8e6ff" opacity="0.74"><animate attributeName="opacity" values="0.74;0.18;0.74" dur="5.8s" begin="2.3s" repeatCount="indefinite"/></path>
<path d="M802.7,220.4 Q802.7,224.9 807.2,224.9 Q802.7,224.9 802.7,229.3 Q802.7,224.9 798.2,224.9 Q802.7,224.9 802.7,220.4 Z" fill="#e8e6ff" opacity="0.32"><animate attributeName="opacity" values="0.32;0.08;0.32" dur="4.8s" begin="2.8s" repeatCount="indefinite"/></path>
<path d="M339.5,83.7 Q339.5,87.2 343.1,87.2 Q339.5,87.2 339.5,90.8 Q339.5,87.2 336.0,87.2 Q339.5,87.2 339.5,83.7 Z" fill="#e8e6ff" opacity="0.7"><animate attributeName="opacity" values="0.7;0.17;0.7" dur="4.0s" begin="0.1s" repeatCount="indefinite"/></path>
<circle cx="13" cy="169" r="1.4" fill="#f5d58a" opacity="0.52"/>
<circle cx="864" cy="195" r="0.5" fill="#e8e6ff" opacity="0.32"/>
<circle cx="372" cy="144" r="1.1" fill="#e8e6ff" opacity="0.29"/>
<circle cx="851" cy="60" r="1.4" fill="#e8e6ff" opacity="0.78"/>
<circle cx="979" cy="119" r="0.7" fill="#e8e6ff" opacity="0.70"/>
<circle cx="821" cy="217" r="1.1" fill="#e8e6ff" opacity="0.54"/>
<circle cx="98" cy="171" r="0.7" fill="#e8e6ff" opacity="0.27"/>
<circle cx="13" cy="72" r="1.1" fill="#e8e6ff" opacity="0.27"/>
<circle cx="193" cy="190" r="1.4" fill="#e8e6ff" opacity="0.46"/>
<circle cx="14" cy="82" r="0.5" fill="#e8e6ff" opacity="0.35"/>
<circle cx="186" cy="30" r="0.7" fill="#e8e6ff" opacity="0.43"/>
<circle cx="307" cy="213" r="0.5" fill="#e8e6ff" opacity="0.67"/>
<circle cx="81" cy="30" r="0.7" fill="#e8e6ff" opacity="0.38"/>
<circle cx="437" cy="98" r="0.5" fill="#e8e6ff" opacity="0.34"/>
<circle cx="110" cy="63" r="0.5" fill="#e8e6ff" opacity="0.43"/>
<circle cx="1115" cy="72" r="1.1" fill="#e8e6ff" opacity="0.63"/>
<circle cx="776" cy="151" r="1.4" fill="#e8e6ff" opacity="0.63"/>
<circle cx="784" cy="133" r="0.5" fill="#e8e6ff" opacity="0.52"/>
<circle cx="1052" cy="182" r="0.9" fill="#e8e6ff" opacity="0.74"/>
<circle cx="76" cy="199" r="0.9" fill="#e8e6ff" opacity="0.71"/>
<circle cx="27" cy="133" r="0.7" fill="#e8e6ff" opacity="0.31"/>
<circle cx="129" cy="179" r="0.7" fill="#e8e6ff" opacity="0.28"/>
<circle cx="946" cy="199" r="0.9" fill="#e8e6ff" opacity="0.67"/>
<circle cx="353" cy="74" r="1.1" fill="#e8e6ff" opacity="0.75"/>
<circle cx="156" cy="14" r="1.4" fill="#e8e6ff" opacity="0.67"/>
<circle cx="407" cy="247" r="0.7" fill="#f5d58a" opacity="0.26"/>
<circle cx="860" cy="112" r="0.7" fill="#e8e6ff" opacity="0.34"/>
<circle cx="262" cy="219" r="1.4" fill="#e8e6ff" opacity="0.47"/>
<circle cx="914" cy="28" r="1.1" fill="#e8e6ff" opacity="0.71"/>
<circle cx="1125" cy="178" r="1.1" fill="#e8e6ff" opacity="0.69"/>
<circle cx="139" cy="250" r="0.9" fill="#e8e6ff" opacity="0.56"/>
<circle cx="1023" cy="37" r="1.4" fill="#e8e6ff" opacity="0.43"/>
<circle cx="999" cy="112" r="0.7" fill="#e8e6ff" opacity="0.60"/>
<circle cx="906" cy="76" r="0.5" fill="#e8e6ff" opacity="0.64"/>
<circle cx="1119" cy="127" r="1.1" fill="#e8e6ff" opacity="0.34"/>
<circle cx="1002" cy="171" r="1.1" fill="#e8e6ff" opacity="0.55"/>
<circle cx="120" cy="204" r="0.9" fill="#f5d58a" opacity="0.48"/>
<circle cx="284" cy="82" r="1.1" fill="#e8e6ff" opacity="0.35"/>
<circle cx="1077" cy="83" r="1.1" fill="#f5d58a" opacity="0.26"/><rect x="10" y="10" width="1180" height="242" rx="12" fill="none" stroke="#f5d58a" stroke-opacity="0.35"/><rect x="17" y="17" width="1166" height="228" rx="8" fill="none" stroke="#f5d58a" stroke-opacity="0.12"/><path d="M17.0,11.0 Q17.0,17.0 23.0,17.0 Q17.0,17.0 17.0,23.0 Q17.0,17.0 11.0,17.0 Q17.0,17.0 17.0,11.0 Z" fill="#f5d58a" opacity="0.8"></path><path d="M1183.0,11.0 Q1183.0,17.0 1189.0,17.0 Q1183.0,17.0 1183.0,23.0 Q1183.0,17.0 1177.0,17.0 Q1183.0,17.0 1183.0,11.0 Z" fill="#f5d58a" opacity="0.8"></path><path d="M17.0,239.0 Q17.0,245.0 23.0,245.0 Q17.0,245.0 17.0,251.0 Q17.0,245.0 11.0,245.0 Q17.0,245.0 17.0,239.0 Z" fill="#f5d58a" opacity="0.8"></path><path d="M1183.0,239.0 Q1183.0,245.0 1189.0,245.0 Q1183.0,245.0 1183.0,251.0 Q1183.0,245.0 1177.0,245.0 Q1183.0,245.0 1183.0,239.0 Z" fill="#f5d58a" opacity="0.8"></path><circle cx="158" cy="118" r="84" fill="#03040b" fill-opacity="0.6" stroke="#f5d58a" stroke-opacity="0.3"/><circle cx="158" cy="118" r="56" fill="none" stroke="#9fb4ff" stroke-opacity="0.08" stroke-dasharray="2 5"/><line x1="74" y1="118" x2="242" y2="118" stroke="#9fb4ff" stroke-opacity="0.06"/><line x1="158" y1="34" x2="158" y2="202" stroke="#9fb4ff" stroke-opacity="0.06"/><g><line x1="246.0" y1="118.0" x2="254.0" y2="118.0" stroke="#f5d58a" stroke-opacity="0.35"/><line x1="244.7" y1="133.3" x2="248.6" y2="134.0" stroke="#f5d58a" stroke-opacity="0.35"/><line x1="240.7" y1="148.1" x2="244.5" y2="149.5" stroke="#f5d58a" stroke-opacity="0.35"/><line x1="234.2" y1="162.0" x2="241.1" y2="166.0" stroke="#f5d58a" stroke-opacity="0.35"/><line x1="225.4" y1="174.6" x2="228.5" y2="177.1" stroke="#f5d58a" stroke-opacity="0.35"/><line x1="214.6" y1="185.4" x2="217.1" y2="188.5" stroke="#f5d58a" stroke-opacity="0.35"/><line x1="202.0" y1="194.2" x2="206.0" y2="201.1" stroke="#f5d58a" stroke-opacity="0.35"/><line x1="188.1" y1="200.7" x2="189.5" y2="204.5" stroke="#f5d58a" stroke-opacity="0.35"/><line x1="173.3" y1="204.7" x2="174.0" y2="208.6" stroke="#f5d58a" stroke-opacity="0.35"/><line x1="158.0" y1="206.0" x2="158.0" y2="214.0" stroke="#f5d58a" stroke-opacity="0.35"/><line x1="142.7" y1="204.7" x2="142.0" y2="208.6" stroke="#f5d58a" stroke-opacity="0.35"/><line x1="127.9" y1="200.7" x2="126.5" y2="204.5" stroke="#f5d58a" stroke-opacity="0.35"/><line x1="114.0" y1="194.2" x2="110.0" y2="201.1" stroke="#f5d58a" stroke-opacity="0.35"/><line x1="101.4" y1="185.4" x2="98.9" y2="188.5" stroke="#f5d58a" stroke-opacity="0.35"/><line x1="90.6" y1="174.6" x2="87.5" y2="177.1" stroke="#f5d58a" stroke-opacity="0.35"/><line x1="81.8" y1="162.0" x2="74.9" y2="166.0" stroke="#f5d58a" stroke-opacity="0.35"/><line x1="75.3" y1="148.1" x2="71.5" y2="149.5" stroke="#f5d58a" stroke-opacity="0.35"/><line x1="71.3" y1="133.3" x2="67.4" y2="134.0" stroke="#f5d58a" stroke-opacity="0.35"/><line x1="70.0" y1="118.0" x2="62.0" y2="118.0" stroke="#f5d58a" stroke-opacity="0.35"/><line x1="71.3" y1="102.7" x2="67.4" y2="102.0" stroke="#f5d58a" stroke-opacity="0.35"/><line x1="75.3" y1="87.9" x2="71.5" y2="86.5" stroke="#f5d58a" stroke-opacity="0.35"/><line x1="81.8" y1="74.0" x2="74.9" y2="70.0" stroke="#f5d58a" stroke-opacity="0.35"/><line x1="90.6" y1="61.4" x2="87.5" y2="58.9" stroke="#f5d58a" stroke-opacity="0.35"/><line x1="101.4" y1="50.6" x2="98.9" y2="47.5" stroke="#f5d58a" stroke-opacity="0.35"/><line x1="114.0" y1="41.8" x2="110.0" y2="34.9" stroke="#f5d58a" stroke-opacity="0.35"/><line x1="127.9" y1="35.3" x2="126.5" y2="31.5" stroke="#f5d58a" stroke-opacity="0.35"/><line x1="142.7" y1="31.3" x2="142.0" y2="27.4" stroke="#f5d58a" stroke-opacity="0.35"/><line x1="158.0" y1="30.0" x2="158.0" y2="22.0" stroke="#f5d58a" stroke-opacity="0.35"/><line x1="173.3" y1="31.3" x2="174.0" y2="27.4" stroke="#f5d58a" stroke-opacity="0.35"/><line x1="188.1" y1="35.3" x2="189.5" y2="31.5" stroke="#f5d58a" stroke-opacity="0.35"/><line x1="202.0" y1="41.8" x2="206.0" y2="34.9" stroke="#f5d58a" stroke-opacity="0.35"/><line x1="214.6" y1="50.6" x2="217.1" y2="47.5" stroke="#f5d58a" stroke-opacity="0.35"/><line x1="225.4" y1="61.4" x2="228.5" y2="58.9" stroke="#f5d58a" stroke-opacity="0.35"/><line x1="234.2" y1="74.0" x2="241.1" y2="70.0" stroke="#f5d58a" stroke-opacity="0.35"/><line x1="240.7" y1="87.9" x2="244.5" y2="86.5" stroke="#f5d58a" stroke-opacity="0.35"/><line x1="244.7" y1="102.7" x2="248.6" y2="102.0" stroke="#f5d58a" stroke-opacity="0.35"/><animateTransform attributeName="transform" type="rotate" from="0 158 118" to="360 158 118" dur="90s" repeatCount="indefinite"/></g><line x1="120.0" y1="66.0" x2="176.0" y2="66.0" stroke="#9fb4ff" stroke-opacity="0.45" stroke-width="1"/><line x1="176.0" y1="66.0" x2="198.0" y2="88.0" stroke="#9fb4ff" stroke-opacity="0.45" stroke-width="1"/><line x1="198.0" y1="88.0" x2="198.0" y2="170.0" stroke="#9fb4ff" stroke-opacity="0.45" stroke-width="1"/><line x1="198.0" y1="170.0" x2="120.0" y2="170.0" stroke="#9fb4ff" stroke-opacity="0.45" stroke-width="1"/><line x1="120.0" y1="170.0" x2="120.0" y2="66.0" stroke="#9fb4ff" stroke-opacity="0.45" stroke-width="1"/><line x1="176.0" y1="66.0" x2="176.0" y2="88.0" stroke="#9fb4ff" stroke-opacity="0.45" stroke-width="1"/><line x1="176.0" y1="88.0" x2="198.0" y2="88.0" stroke="#9fb4ff" stroke-opacity="0.45" stroke-width="1"/><line x1="138.0" y1="108.0" x2="180.0" y2="108.0" stroke="#9fb4ff" stroke-opacity="0.45" stroke-width="1"/><line x1="138.0" y1="132.0" x2="180.0" y2="132.0" stroke="#9fb4ff" stroke-opacity="0.45" stroke-width="1"/><line x1="138.0" y1="154.0" x2="164.0" y2="154.0" stroke="#9fb4ff" stroke-opacity="0.45" stroke-width="1"/><circle cx="120.0" cy="66.0" r="6" fill="#f5d58a" opacity="0.10" filter="url(#glow)"/><path d="M120.0,61.5 Q120.0,66.0 124.5,66.0 Q120.0,66.0 120.0,70.5 Q120.0,66.0 115.5,66.0 Q120.0,66.0 120.0,61.5 Z" fill="#f5d58a" opacity="0.85"><animate attributeName="opacity" values="0.85;0.21;0.85" dur="3.0s" begin="0.0s" repeatCount="indefinite"/></path><circle cx="176.0" cy="66.0" r="6" fill="#f5d58a" opacity="0.10" filter="url(#glow)"/><path d="M176.0,61.5 Q176.0,66.0 180.5,66.0 Q176.0,66.0 176.0,70.5 Q176.0,66.0 171.5,66.0 Q176.0,66.0 176.0,61.5 Z" fill="#f5d58a" opacity="0.85"><animate attributeName="opacity" values="0.85;0.21;0.85" dur="3.8s" begin="0.45s" repeatCount="indefinite"/></path><circle cx="198.0" cy="88.0" r="6" fill="#f5d58a" opacity="0.10" filter="url(#glow)"/><path d="M198.0,83.5 Q198.0,88.0 202.5,88.0 Q198.0,88.0 198.0,92.5 Q198.0,88.0 193.5,88.0 Q198.0,88.0 198.0,83.5 Z" fill="#f5d58a" opacity="0.85"><animate attributeName="opacity" values="0.85;0.21;0.85" dur="4.6s" begin="0.9s" repeatCount="indefinite"/></path><circle cx="198.0" cy="170.0" r="6" fill="#f5d58a" opacity="0.10" filter="url(#glow)"/><path d="M198.0,165.5 Q198.0,170.0 202.5,170.0 Q198.0,170.0 198.0,174.5 Q198.0,170.0 193.5,170.0 Q198.0,170.0 198.0,165.5 Z" fill="#f5d58a" opacity="0.85"><animate attributeName="opacity" values="0.85;0.21;0.85" dur="3.0s" begin="1.35s" repeatCount="indefinite"/></path><circle cx="120.0" cy="170.0" r="6" fill="#f5d58a" opacity="0.10" filter="url(#glow)"/><path d="M120.0,165.5 Q120.0,170.0 124.5,170.0 Q120.0,170.0 120.0,174.5 Q120.0,170.0 115.5,170.0 Q120.0,170.0 120.0,165.5 Z" fill="#f5d58a" opacity="0.85"><animate attributeName="opacity" values="0.85;0.21;0.85" dur="3.8s" begin="1.8s" repeatCount="indefinite"/></path><circle cx="176.0" cy="88.0" r="6" fill="#f5d58a" opacity="0.10" filter="url(#glow)"/><path d="M176.0,83.5 Q176.0,88.0 180.5,88.0 Q176.0,88.0 176.0,92.5 Q176.0,88.0 171.5,88.0 Q176.0,88.0 176.0,83.5 Z" fill="#f5d58a" opacity="0.85"><animate attributeName="opacity" values="0.85;0.21;0.85" dur="4.6s" begin="2.25s" repeatCount="indefinite"/></path><circle cx="138.0" cy="108.0" r="6" fill="#f5d58a" opacity="0.10" filter="url(#glow)"/><path d="M138.0,103.5 Q138.0,108.0 142.5,108.0 Q138.0,108.0 138.0,112.5 Q138.0,108.0 133.5,108.0 Q138.0,108.0 138.0,103.5 Z" fill="#f5d58a" opacity="0.85"><animate attributeName="opacity" values="0.85;0.21;0.85" dur="3.0s" begin="2.7s" repeatCount="indefinite"/></path><circle cx="180.0" cy="108.0" r="6" fill="#f5d58a" opacity="0.10" filter="url(#glow)"/><path d="M180.0,103.5 Q180.0,108.0 184.5,108.0 Q180.0,108.0 180.0,112.5 Q180.0,108.0 175.5,108.0 Q180.0,108.0 180.0,103.5 Z" fill="#f5d58a" opacity="0.85"><animate attributeName="opacity" values="0.85;0.21;0.85" dur="3.8s" begin="3.15s" repeatCount="indefinite"/></path><circle cx="138.0" cy="132.0" r="6" fill="#f5d58a" opacity="0.10" filter="url(#glow)"/><path d="M138.0,127.5 Q138.0,132.0 142.5,132.0 Q138.0,132.0 138.0,136.5 Q138.0,132.0 133.5,132.0 Q138.0,132.0 138.0,127.5 Z" fill="#f5d58a" opacity="0.85"><animate attributeName="opacity" values="0.85;0.21;0.85" dur="4.6s" begin="3.6s" repeatCount="indefinite"/></path><circle cx="180.0" cy="132.0" r="6" fill="#f5d58a" opacity="0.10" filter="url(#glow)"/><path d="M180.0,127.5 Q180.0,132.0 184.5,132.0 Q180.0,132.0 180.0,136.5 Q180.0,132.0 175.5,132.0 Q180.0,132.0 180.0,127.5 Z" fill="#f5d58a" opacity="0.85"><animate attributeName="opacity" values="0.85;0.21;0.85" dur="3.0s" begin="4.05s" repeatCount="indefinite"/></path><circle cx="138.0" cy="154.0" r="6" fill="#f5d58a" opacity="0.10" filter="url(#glow)"/><path d="M138.0,149.5 Q138.0,154.0 142.5,154.0 Q138.0,154.0 138.0,158.5 Q138.0,154.0 133.5,154.0 Q138.0,154.0 138.0,149.5 Z" fill="#f5d58a" opacity="0.85"><animate attributeName="opacity" values="0.85;0.21;0.85" dur="3.8s" begin="4.5s" repeatCount="indefinite"/></path><circle cx="164.0" cy="154.0" r="6" fill="#f5d58a" opacity="0.10" filter="url(#glow)"/><path d="M164.0,149.5 Q164.0,154.0 168.5,154.0 Q164.0,154.0 164.0,158.5 Q164.0,154.0 159.5,154.0 Q164.0,154.0 164.0,149.5 Z" fill="#f5d58a" opacity="0.85"><animate attributeName="opacity" values="0.85;0.21;0.85" dur="4.6s" begin="4.95s" repeatCount="indefinite"/></path><path id="p52" d="M120.0,66.0 176.0,66.0 L176.0,66.0 198.0,88.0 L198.0,88.0 198.0,170.0 L198.0,170.0 120.0,170.0 L120.0,170.0 120.0,66.0 L176.0,66.0 176.0,88.0 L176.0,88.0 198.0,88.0 L138.0,108.0 180.0,108.0 L138.0,132.0 180.0,132.0 L138.0,154.0 164.0,154.0" fill="none" stroke="none"/><circle r="2.2" fill="#f5d58a" filter="url(#glow)"><animateMotion dur="6s" repeatCount="indefinite"><mpath href="#p52"/></animateMotion></circle><text x="158" y="236" text-anchor="middle" font-family="Georgia, 'Times New Roman', 'DejaVu Serif', serif" font-style="italic" font-size="13" fill="#7d839e">fig. II — the page</text><text x="1130" y="222" text-anchor="end" font-family="Georgia, 'Times New Roman', 'DejaVu Serif', serif" font-size="190" fill="#f5d58a" opacity="0.05">II</text><text x="310" y="62" text-anchor="start" font-family="'Segoe UI', 'Helvetica Neue', Arial, sans-serif" font-size="12" fill="#f5d58a" letter-spacing="5" opacity="1.0">PLATE II · CAREERS</text><text x="310" y="106" font-family="Georgia, 'Times New Roman', 'DejaVu Serif', serif" font-size="38" fill="#efe9dc">Resumify</text><text x="310" y="142" font-family="Georgia, 'Times New Roman', 'DejaVu Serif', serif" font-style="italic" font-size="18.5" fill="#b9bdd0">An AI resume optimizer that lifts ATS compatibility</text><text x="310" y="169" font-family="Georgia, 'Times New Roman', 'DejaVu Serif', serif" font-style="italic" font-size="18.5" fill="#b9bdd0">and recruiter appeal: good resumes, made great.</text><text x="310" y="212" text-anchor="start" font-family="'Segoe UI', 'Helvetica Neue', Arial, sans-serif" font-size="11.5" fill="#9fb4ff" letter-spacing="3" opacity="0.9">REACT  ✦  NODE.JS  ✦  EXPRESS  ✦  OPENAI</text><text x="1152" y="62" text-anchor="end" font-family="Georgia, 'Times New Roman', 'DejaVu Serif', serif" font-style="italic" font-size="15" fill="#f5d58a">view repository ↗</text></svg>